# xmcd
#
# Track frame offsets: 
#        150
#        17169
#        29054
#        47764
#        59283
#        71447
#        88250
#        102894
#        116059
#        126633
#        143454
#        162050
#        174315
#        188229
#        202292
#        221850
#        233719
#
# Disc length: 3334 seconds
#
# Revision: 2
# Processed by: cddbd v1.5.2PL0 Copyright (c) Steve Scherf et al.
# Submitted via: ExactAudioCopyFreeDBPlugin 1.0
#
DISCID=fe0d0411
DTITLE=Various Artist - Holland Dozier Holland:  The Complete 45s Col
DTITLE=lection (Invictus, Hot Wax, Music Merchant), 1969-1977 [Harmles
DTITLE=s box set]
DYEAR=2014
DGENRE=Soul
TTITLE0=Ty Hunter - I Don't See Me in Your Eyes Anymore
TTITLE1=The Chairmen of the Board - Everybody's Got a Song to Sing
TTITLE2=The 8th Day - Good Book
TTITLE3=The Chairmen of the Board - I Can't Find Myself
TTITLE4=Freda Payne - Through the Memory of My Mind
TTITLE5=Glass House - I Don't See Me in Your Eyes Anymore
TTITLE6=The Barrino Brothers - Livin' High Off the Goodness of Your Lo
TTITLE6=ve (instrumental)
TTITLE7=Danny Woods - Roller Coaster
TTITLE8=Holland-Dozier - Don't Leave Me Starving for Your Love (Part 2
TTITLE8=)
TTITLE9=The Chairmen of the Board - Finder's Keepers (instrumental)
TTITLE10=General Johnson - Only Time Will Tell (instrumental)
TTITLE11=Holland-Dozier - Can't Get Enough (instrumental)
TTITLE12=Holland-Dozier - If You Don't Want to Be in My Life
TTITLE13=Freda Payne - We've Gotta Find a Way Back to Love
TTITLE14=The Barrino Brothers - Born on the Wild (instrumental)
TTITLE15=Freda Payne - For No Reason
TTITLE16=Holland-Dozier - You Took Me from a World Outside
EXTD=
EXTT0=
EXTT1=
EXTT2=
EXTT3=
EXTT4=
EXTT5=
EXTT6=
EXTT7=
EXTT8=
EXTT9=
EXTT10=
EXTT11=
EXTT12=
EXTT13=
EXTT14=
EXTT15=
EXTT16=
PLAYORDER=
